PathFileType	4	(X/Y/Z)	C:\Users\Basilio\Documents\Thesis Gigler\squatting_fais\c3dfiles\047\SJ_pre4\markers_experimental.trc
DataRate	CameraRate	NumFrames	NumMarkers	Units	OrigDataRate	OrigDataStartFrame	OrigNumFrames
200.000000	200.000000	4	61	mm	200.000000	1372	1569
Frame#	Time	FHD			LBHD			RBHD			C7			T10			CLAV			LSHO			LUUPA			LMUPA			LDUPA			LLEP			LMEP			LRAD			LUL			LRFIN			RSHO			RUPA1			RMUPA			RDUPA			RLEP			RMEP			RRAD			RUL			RUFIN			LASI			RASI			USACR			LSACR			RSACR			LTHI1			LTHI2			LTHI3			LTHI4			LLFC			LMFC			LTIB1			LTIB2			LTIB3			LTIB4			LLMAL			LMMAL			LMT1			LMT2			LMT5			RTHI			RTHI2			RTHI3			RTHI4			RLFC			RMFC			RTIB1			RTIB2			RTIB3			RTIB4			RLMAL			RMMAL			RHEE			RMT1			RMT2			RMT5			*60			
		X1	Y1	Z1	X2	Y2	Z2	X3	Y3	Z3	X4	Y4	Z4	X5	Y5	Z5	X6	Y6	Z6	X7	Y7	Z7	X8	Y8	Z8	X9	Y9	Z9	X10	Y10	Z10	X11	Y11	Z11	X12	Y12	Z12	X13	Y13	Z13	X14	Y14	Z14	X15	Y15	Z15	X16	Y16	Z16	X17	Y17	Z17	X18	Y18	Z18	X19	Y19	Z19	X20	Y20	Z20	X21	Y21	Z21	X22	Y22	Z22	X23	Y23	Z23	X24	Y24	Z24	X25	Y25	Z25	X26	Y26	Z26	X27	Y27	Z27	X28	Y28	Z28	X29	Y29	Z29	X30	Y30	Z30	X31	Y31	Z31	X32	Y32	Z32	X33	Y33	Z33	X34	Y34	Z34	X35	Y35	Z35	X36	Y36	Z36	X37	Y37	Z37	X38	Y38	Z38	X39	Y39	Z39	X40	Y40	Z40	X41	Y41	Z41	X42	Y42	Z42	X43	Y43	Z43	X44	Y44	Z44	X45	Y45	Z45	X46	Y46	Z46	X47	Y47	Z47	X48	Y48	Z48	X49	Y49	Z49	X50	Y50	Z50	X51	Y51	Z51	X52	Y52	Z52	X53	Y53	Z53	X54	Y54	Z54	X55	Y55	Z55	X56	Y56	Z56	X57	Y57	Z57	X58	Y58	Z58	X59	Y59	Z59	X60	Y60	Z60	X61	Y61	Z61	

1373	6.86	70.75819396972658	1522.725830078125	-897.3076171875002	-57.00669097900392	1625.123168945313	-979.6262207031252	-73.61920166015626	1642.822875976563	-834.233337402344	-234.7822265625001	1507.105102539063	-911.3101196289065	-345.1736755371094	1190.6494140625	-909.0203247070315	-105.3779830932617	1400.845825195313	-908.612731933594	-152.0496673583985	1451.021484375	-1086.805786132813	-278.5163879394532	1368.389526367188	-1213.340209960938	-247.4061737060547	1334.612426757813	-1235.146728515625	-301.2545776367188	1319.5390625	-1257.743408203125	-307.0225830078126	1255.301513671875	-1295.6279296875	-369.8033142089844	1237.18115234375	-1221.419311523438	-242.9060821533204	1078.643310546875	-1120.576538085938	-205.0183563232422	1044.595825195313	-1180.043212890625	-184.2930603027344	1069.787841796875	-1083.179321289063	-169.823974609375	1470.116577148438	-742.6221923828126	-317.2333679199219	1387.099731445313	-620.9530639648439	-291.4151000976563	1353.235595703125	-594.9671630859376	-347.0031127929688	1337.864990234375	-579.6447143554689	-355.2922363281251	1273.066040039063	-543.2659301757814	-407.6137695312501	1246.381225585938	-616.9879760742189	-213.3553466796876	1124.520263671875	-690.0030517578126	-209.0753784179688	1079.78759765625	-628.3237304687501	-166.7169036865235	1077.629028320313	-726.0054931640626	-178.8921508789063	956.2680664062502	-1020.684875488281	-184.1680297851563	955.3804321289065	-789.421081542969	-360.2293701171876	1040.564086914063	-914.390319824219	-366.2189636230469	1009.975891113281	-942.585388183594	-365.4299011230469	1008.845642089844	-884.8480224609377	-282.7062988281251	814.4270629882815	-1107.326782226563	-250.8385162353516	737.5148315429689	-1123.001342773438	-202.1020660400391	738.4507446289064	-1114.8974609375	-280.9471435546876	684.6386108398439	-1124.621948242188	-306.2860717773438	510.3073730468751	-1117.22900390625	-253.0424041748047	478.389373779297	-1009.546325683594	-261.2077331542969	311.5346984863282	-1076.329956054688	-288.8030395507813	281.7590637207032	-1154.979858398438	-261.0493164062501	271.9834594726563	-1118.839965820313	-270.1055297851563	189.6372680664063	-1104.0576171875	-328.7864685058594	97.9377136230469	-1161.392333984375	-291.6728820800782	99.14276123046878	-1077.787353515625	-168.1405181884766	64.12670135498048	-1131.764770507813	-176.6366882324219	63.33749008178712	-1173.350708007813	-225.4363250732422	45.58545303344727	-1213.253784179688	-314.3034667968751	786.2185668945315	-709.5064697265626	-282.2006835937501	730.6215820312501	-691.3258666992189	-249.1001892089844	730.9591064453126	-690.8411865234376	-310.6657714843751	651.4674682617189	-700.0887451171876	-309.4671936035157	500.9436645507814	-703.4541625976564	-253.2176361083985	484.0590209960939	-810.3572998046877	-277.4019775390626	371.5103759765626	-698.8726196289064	-350.2148742675782	294.3130187988282	-672.8068237304689	-303.3508300781251	292.6312561035157	-675.1005249023439	-286.9806518554688	241.6777038574219	-700.9774780273439	-357.9899902343751	92.5228958129883	-679.3145141601564	-307.5000305175782	102.0749282836914	-758.6442871093751	-398.4141235351564	51.44448089599611	-740.4746093750001	-189.4105987548828	56.30332946777345	-698.7919311523439	-200.1669921875001	59.52078247070314	-654.4395751953126	-259.9728088378907	30.42878723144532	-611.4509887695314	nan	nan	nan	
1374	6.865	69.62286376953126	1522.3134765625	-897.2034912109377	-58.48722076416017	1624.697143554688	-979.657897949219	-74.58496093750001	1642.53466796875	-834.4517211914065	-236.496810913086	1507.120239257813	-911.2243652343752	-345.5873107910157	1189.692626953125	-909.4697875976565	-106.7564086914063	1400.421875	-908.8441162109377	-153.0879516601563	1450.648193359375	-1087.10107421875	-279.3806457519532	1366.9443359375	-1213.722290039063	-247.9405822753907	1333.193603515625	-1235.100219726563	-301.7266235351563	1318.136596679688	-1258.005981445313	-306.7286376953126	1253.69873046875	-1295.86669921875	-369.6842956542969	1235.302978515625	-1221.77734375	-242.5339508056641	1077.441040039063	-1120.865844726563	-204.2288665771485	1043.689697265625	-1180.523193359375	-183.8767547607422	1068.587524414063	-1083.478759765625	-170.8129119873047	1469.38623046875	-743.0454711914064	-317.6523437500001	1385.896118164063	-620.5615844726564	-291.4813537597657	1351.89111328125	-594.9525146484376	-347.0335083007813	1336.643920898438	-579.3139648437501	-355.2317199707032	1271.657836914063	-542.9725952148439	-407.5590820312501	1245.040893554688	-616.3235473632814	-213.022689819336	1123.553100585938	-690.2279663085939	-208.7929992675782	1078.724487304688	-628.6370849609376	-166.6267852783203	1077.292602539063	-726.3066406250001	-177.6141052246094	956.116638183594	-1021.0576171875	-182.7421417236328	955.4817504882815	-790.1610107421877	-359.5899047851563	1039.10693359375	-914.526794433594	-365.6991577148438	1008.401062011719	-942.6499023437502	-364.3442687988282	1007.213317871094	-885.0737304687502	-281.7447509765626	814.5625000000002	-1107.197021484375	-250.2957611083985	737.5767822265626	-1123.067749023438	-201.4818267822266	738.4595336914064	-1115.328002929688	-280.5330200195313	684.7705078125001	-1124.487060546875	-306.5142211914063	510.3995971679689	-1116.947509765625	-253.2102813720704	478.3059997558595	-1009.460021972656	-261.5505065917969	311.4816894531251	-1075.929809570313	-288.9466247558594	281.8596496582032	-1155.021606445313	-260.8644104003907	272.3709106445313	-1118.906860351563	-270.3503417968751	189.5143432617188	-1103.992919921875	-328.7823791503907	97.45351409912112	-1161.198364257813	-291.7286987304688	99.07867431640628	-1077.8740234375	-168.4764099121094	63.42358398437501	-1131.351196289063	-176.7671051025391	63.10901641845705	-1173.378662109375	-225.3780517578126	45.47308349609376	-1213.358642578125	-313.4310302734376	786.5950317382815	-710.0880126953126	-281.6410522460938	730.7831420898439	-691.7612915039064	-248.3795623779297	731.0104370117189	-691.5294799804689	-310.4802551269532	651.7120361328126	-700.5861816406251	-310.1413879394532	501.0953063964845	-704.3261108398439	-253.045150756836	483.9555664062501	-810.4425048828127	-278.1708068847657	371.6954345703126	-699.2561035156251	-350.8511047363282	294.5759887695313	-673.4462890625001	-304.0339050292969	292.7466125488282	-675.3961181640626	-287.5382385253907	241.6790771484376	-700.9694824218751	-358.1123657226563	92.41330718994142	-679.4116821289064	-307.5899963378907	101.9857254028321	-758.5622558593751	-398.408905029297	51.38441467285158	-740.4161987304689	-189.4703521728516	56.44740676879884	-698.7260131835939	-200.4408721923829	59.78224563598634	-654.2952270507814	-260.0254211425782	30.32812118530274	-611.3836669921876	nan	nan	nan	
1375	6.87	68.38814544677736	1522.12255859375	-897.6690673828127	-59.5650100708008	1624.476318359375	-979.5524902343752	-75.8483352661133	1642.09375	-834.2280273437502	-237.1016082763672	1506.031372070313	-911.0799560546877	-346.3344726562501	1188.436889648438	-909.5949707031252	-107.7757034301758	1399.650390625	-908.7457275390627	-153.7622680664063	1450.012451171875	-1087.316040039063	-279.9329528808594	1365.715087890625	-1213.912475585938	-248.120101928711	1331.828491210938	-1235.46240234375	-301.9738159179688	1316.46044921875	-1258.309448242188	-306.4761047363282	1252.202758789063	-1296.099853515625	-369.7086791992188	1233.494140625	-1222.059936523438	-241.8102722167969	1075.972045898438	-1121.1279296875	-203.5905914306641	1042.427368164063	-1180.467895507813	-183.6012573242188	1067.477661132813	-1083.506469726563	-171.9879913330078	1468.69287109375	-742.8808593750001	-317.8006286621094	1384.360961914063	-620.1395874023439	-291.8886718750001	1350.547485351563	-594.4834594726564	-347.2158813476563	1335.188720703125	-578.5559082031251	-354.7996520996094	1270.273071289063	-542.3453369140626	-407.7004699707032	1243.59033203125	-615.6672363281251	-213.6574096679688	1122.386108398438	-690.4584350585939	-208.7021026611329	1077.771484375	-628.8721313476564	-166.8170471191407	1076.389892578125	-726.5425415039064	-176.6906127929688	955.9546508789065	-1021.264099121094	-181.2906188964844	955.4954833984377	-790.6520996093752	-358.9464111328126	1037.5458984375	-914.7762451171877	-364.9754333496094	1007.046936035156	-942.7116699218752	-363.2636108398438	1005.596435546875	-885.2608032226565	-280.8535766601563	814.6638793945315	-1107.251586914063	-249.7209930419922	737.6554565429689	-1123.203857421875	-200.8304290771485	738.5309448242189	-1115.863891601563	-280.0760498046876	684.8721923828126	-1124.400268554688	-306.7804870605469	510.471160888672	-1116.67626953125	-253.4029693603516	478.273406982422	-1009.476928710938	-261.8976135253907	311.4770812988282	-1075.944580078125	-288.9198303222657	282.0187988281251	-1155.05224609375	-261.3034973144532	272.3587341308594	-1118.807495117188	-270.4877624511719	189.4771728515625	-1103.96435546875	-328.8637390136719	97.80222320556643	-1161.468872070313	-291.7395019531251	99.08380126953128	-1077.960815429688	-168.5005035400391	63.48723602294923	-1131.456909179688	-176.8116455078125	63.0141067504883	-1173.379760742188	-225.4724426269532	45.34177398681641	-1213.46923828125	-312.7442932128907	786.7214355468752	-710.4501953125001	-281.0311889648438	730.9779052734376	-692.2203369140626	-248.0364532470704	730.8972778320314	-692.3858642578126	-310.0072021484376	651.8605346679689	-701.0424194335939	-310.6305236816407	501.1637573242189	-704.9816894531251	-252.9178161621094	483.8343505859376	-810.5913085937502	-278.5869750976563	371.7865600585938	-699.6337280273439	-351.4769287109376	294.7831115722657	-674.1274414062501	-304.6396789550782	292.8901672363282	-675.6096801757814	-287.7873840332032	241.7816162109376	-701.3316650390626	-358.2078247070313	92.35051727294923	-679.4767456054689	-307.5788269042969	101.9933090209961	-758.5488281250001	-398.414520263672	51.37856674194337	-740.3920288085939	-189.6737060546875	56.3308792114258	-698.5272827148439	-200.4579162597657	59.77060317993165	-654.2059936523439	-260.1275024414063	30.11024856567384	-611.2374877929689	nan	nan	nan	
1376	6.875	67.29756164550783	1521.740356445313	-897.3959960937502	-60.56711959838869	1624.234497070313	-979.5363769531252	-76.93450164794923	1641.603149414063	-833.9859008789065	-238.7086944580079	1505.829223632813	-911.2636718750002	-347.2650756835938	1187.559692382813	-909.8865356445315	-108.6705474853516	1399.49462890625	-908.7380371093752	-154.8094787597657	1449.324462890625	-1087.361694335938	-280.5343627929688	1364.114990234375	-1214.080932617188	-248.4897460937501	1330.477661132813	-1235.505981445313	-302.4241943359376	1315.10791015625	-1258.488525390625	-306.3236083984376	1250.488891601563	-1296.212646484375	-369.5198059082032	1231.599365234375	-1222.498779296875	-241.2989654541016	1074.126342773438	-1121.535888671875	-202.4329528808594	1041.352783203125	-1180.77685546875	-182.5050964355469	1066.252319335938	-1083.759033203125	-172.8778686523438	1467.752685546875	-743.1077880859376	-318.1612854003907	1383.020629882813	-619.9113159179689	-291.6240539550782	1349.028442382813	-595.4931640625001	-347.2110900878907	1333.76318359375	-578.3638916015626	-354.7962341308594	1268.987548828125	-541.8961181640626	-407.650360107422	1242.191650390625	-614.9333496093751	-213.6425781250001	1121.521606445313	-690.7923583984376	-208.6121673583985	1076.66845703125	-629.2719726562501	-166.8447570800782	1075.771728515625	-726.9940795898439	-175.0033111572266	956.0355224609377	-1022.106750488281	-180.0631866455078	955.4216308593752	-790.8127441406252	-358.3715820312501	1035.911743164063	-914.972595214844	-364.1753540039063	1005.382751464844	-942.944519042969	-362.6218566894532	1004.307983398438	-885.4822387695315	-280.0020141601563	814.7819824218752	-1107.258056640625	-249.0856170654297	737.8416137695314	-1123.372314453125	-200.0965270996094	738.5891723632814	-1116.302368164063	-279.6665039062501	685.1249389648439	-1124.37548828125	-306.8846740722657	510.5116271972657	-1116.468872070313	-253.4386291503907	478.2234802246095	-1009.591796875	-262.0232238769532	311.4905700683594	-1075.789916992188	-288.8167724609376	282.1451721191407	-1155.19873046875	-261.7033081054688	272.0859985351563	-1118.647216796875	-270.5928955078126	189.4525146484375	-1103.954833984375	-328.8745422363282	97.31206512451175	-1161.267211914063	-291.7719726562501	99.06023406982425	-1078.033447265625	-168.497299194336	63.50941085815431	-1131.587158203125	-176.9600830078125	62.62623214721681	-1173.190551757813	-225.4872741699219	45.27131652832032	-1213.603271484375	-311.7843322753907	786.933288574219	-711.0424194335939	-280.3154602050782	731.2447509765626	-692.6416625976564	-247.4526672363282	731.3356933593751	-691.8463745117189	-309.4620971679688	652.1642456054689	-701.5203247070314	-310.9729309082032	501.2285766601564	-705.3541259765626	-252.8405303955079	483.6681518554689	-810.5781250000002	-278.9653320312501	371.9212951660157	-699.9891967773439	-352.0182800292969	294.8030090332032	-674.8481445312501	-305.1992187500001	292.9715881347657	-675.6552734375001	-288.2095947265626	241.7596130371094	-701.2497558593751	-358.2723999023438	92.39523315429689	-679.5016479492189	-307.6021728515626	102.0001296997071	-758.4728393554689	-398.4263610839845	51.35498428344728	-740.3761596679689	-189.7044067382813	56.275936126709	-698.2127685546876	-200.5038757324219	59.69866943359376	-654.1255493164064	-260.1451110839844	29.96977233886719	-611.2297363281251	nan	nan	nan	
